<?xml version="1.0" standalone="no"?>
<!DOCTYPE svg PUBLIC "-//W3C//DTD SVG 20010904//EN"
 "http://www.w3.org/TR/2001/REC-SVG-20010904/DTD/svg10.dtd">
<svg version="1.0" xmlns="http://www.w3.org/2000/svg"
 width="1125.000000pt" height="1125.000000pt" viewBox="0 0 1125.000000 1125.000000"
 preserveAspectRatio="xMidYMid meet">
<metadata>
Created by potrace 1.14, written by Peter Selinger 2001-2017
</metadata>
<g transform="translate(0.000000,1125.000000) scale(0.100000,-0.100000)"
fill="#000000" stroke="none">
<path d="M4970 9510 c-213 -25 -356 -86 -448 -191 -45 -52 -79 -64 -122 -44
-19 8 -42 19 -50 25 -64 39 -154 71 -235 81 -95 12 -355 5 -410 -11 -16 -5
-50 -13 -75 -19 -25 -5 -72 -17 -105 -26 -33 -9 -71 -19 -85 -21 -14 -3 -46
-17 -71 -30 -26 -13 -54 -24 -63 -24 -20 0 -185 -83 -243 -122 -23 -16 -50
-32 -60 -36 -22 -9 -102 -62 -124 -82 -9 -8 -25 -22 -35 -30 -147 -115 -227
-186 -310 -275 -54 -58 -102 -114 -105 -123 -4 -9 -21 -30 -39 -47 -17 -16
-41 -46 -53 -65 -12 -19 -32 -44 -45 -54 -14 -11 -31 -33 -39 -50 -18 -41 -50
-94 -91 -152 -43 -60 -94 -162 -87 -173 3 -5 -2 -11 -10 -15 -8 -3 -15 -12
-15 -19 0 -8 -16 -46 -35 -86 -19 -39 -35 -76 -35 -82 0 -6 -6 -25 -14 -42
-22 -52 -57 -167 -72 -242 -8 -38 -22 -106 -31 -150 -14 -66 -17 -136 -18
-395 0 -312 3 -357 42 -610 12 -79 23 -115 43 -146 23 -34 29 -60 39 -155 12
-111 16 -128 49 -197 17 -35 124 -132 146 -132 25 0 101 -86 119 -136 10 -27
25 -61 33 -76 16 -30 18 -58 4 -58 -5 0 -10 -8 -10 -17 0 -9 -8 -25 -17 -35
-15 -17 -15 -20 5 -48 27 -36 27 -46 2 -53 -17 -4 -18 -9 -10 -34 6 -15 29
-41 51 -56 22 -16 47 -41 56 -55 20 -32 53 -61 71 -62 16 0 16 27 0 33 -10 3
-10 7 -2 17 20 20 52 -22 59 -77 7 -50 22 -107 35 -133 4 -9 11 -35 15 -58 4
-23 11 -44 16 -48 15 -9 11 -101 -6 -117 -12 -13 -11 -21 10 -63 13 -27 43
-109 66 -181 33 -103 39 -136 30 -147 -13 -16 4 -26 45 -26 19 0 24 -5 24 -25
0 -16 6 -25 15 -25 11 0 15 -11 15 -39 0 -25 5 -41 15 -45 8 -3 15 -17 15 -31
0 -14 5 -25 10 -25 6 0 10 -15 10 -34 0 -18 7 -39 15 -46 8 -7 15 -21 15 -30
0 -10 3 -20 8 -22 4 -1 15 -20 25 -40 9 -21 25 -55 35 -75 9 -21 23 -42 30
-46 6 -4 12 -16 12 -26 0 -10 11 -30 25 -45 14 -15 25 -33 25 -40 0 -8 7 -16
15 -20 8 -3 15 -12 15 -21 0 -8 5 -15 10 -15 6 0 10 -6 10 -14 0 -8 18 -33 40
-56 22 -23 40 -47 40 -54 0 -16 327 -346 343 -346 7 0 32 -18 55 -40 22 -22
44 -40 48 -40 4 0 29 -18 55 -40 26 -22 54 -40 61 -40 7 0 24 -12 37 -25 13
-14 29 -25 37 -25 8 0 26 -13 41 -30 14 -16 34 -30 44 -30 10 0 21 -4 24 -10
3 -5 14 -10 24 -10 9 0 28 -13 41 -30 14 -16 35 -29 48 -30 12 0 22 -4 22 -10
0 -5 8 -10 19 -10 10 0 24 -7 31 -15 7 -8 20 -15 29 -15 9 0 25 -9 34 -21 10
-11 31 -25 47 -31 17 -5 30 -14 30 -19 0 -5 16 -9 35 -9 22 0 38 -6 41 -15 4
-8 17 -15 30 -15 13 0 24 -4 24 -10 0 -5 8 -10 19 -10 10 0 24 -7 31 -15 7 -8
28 -15 47 -15 21 0 36 -6 39 -15 4 -9 19 -15 39 -15 19 0 37 -5 40 -10 3 -6
28 -10 54 -10 26 0 56 -7 67 -15 11 -8 42 -14 75 -15 38 0 61 -5 69 -15 10
-12 41 -15 160 -15 119 0 150 3 160 15 7 9 29 15 51 15 25 0 54 9 79 25 22 14
53 25 69 25 16 0 34 7 41 15 7 8 21 15 31 15 11 0 19 4 19 8 0 9 69 42 87 42
6 0 16 7 23 15 7 8 21 15 31 15 11 0 19 4 19 9 0 5 11 12 25 15 14 4 25 11 25
16 0 6 9 10 20 10 10 0 23 6 27 13 9 13 36 32 68 46 11 5 29 18 39 30 11 11
25 21 33 21 8 0 26 11 41 25 15 14 35 25 44 25 10 0 18 7 18 15 0 8 4 15 9 15
6 0 22 11 37 25 15 14 31 25 36 25 6 0 30 19 56 43 95 89 105 97 114 97 11 0
308 295 308 306 0 10 50 68 98 116 23 22 42 46 42 53 0 6 16 29 35 51 19 21
35 45 35 51 0 7 14 26 30 41 17 16 30 38 30 50 0 11 7 22 15 26 8 3 15 13 15
22 0 9 11 27 25 40 14 13 25 32 25 44 0 11 4 20 9 20 5 0 12 14 16 30 4 17 11
30 16 30 5 0 9 9 9 20 0 11 7 23 15 26 8 4 15 16 15 29 0 12 11 31 25 41 14
10 25 26 25 35 0 9 7 22 15 29 8 7 15 18 15 25 0 7 7 26 15 41 8 16 15 37 15
46 0 9 5 20 10 23 6 3 10 15 10 26 0 11 7 22 15 25 8 4 15 14 15 24 0 20 30
83 43 88 4 2 7 14 7 27 0 12 7 25 15 29 9 3 15 19 15 41 0 19 5 35 10 35 6 0
10 9 10 19 0 11 7 26 15 35 8 8 15 22 15 31 0 8 7 18 15 21 8 4 15 17 15 30 0
13 5 24 10 24 6 0 10 9 10 19 0 11 7 26 15 35 8 8 15 24 15 35 0 12 6 21 15
21 8 0 15 7 15 15 0 8 7 15 15 15 8 0 15 7 15 15 0 25 -36 17 -50 -11 -13 -22
-16 -24 -26 -10 -6 9 -12 51 -13 92 -1 47 -7 84 -15 96 -14 20 -15 19 -29 -8
-8 -16 -20 -47 -26 -69 -15 -47 -43 -105 -52 -105 -18 0 -109 -219 -109 -261
0 -6 -6 -25 -14 -42 -7 -18 -21 -59 -30 -92 -64 -223 -237 -524 -542 -946 -19
-26 -34 -49 -34 -52 0 -17 -459 -480 -590 -596 -69 -61 -182 -141 -198 -141
-5 0 -15 -7 -22 -15 -14 -17 -67 -45 -87 -45 -7 0 -13 -3 -13 -7 0 -7 -104
-60 -191 -97 -85 -37 -224 -65 -309 -65 -155 2 -370 46 -490 101 -121 56 -274
136 -355 187 -266 170 -454 293 -532 350 -91 67 -113 85 -220 186 -36 33 -79
74 -97 90 -107 98 -295 339 -385 493 -51 87 -151 292 -151 310 0 6 -4 12 -10
12 -5 0 -10 7 -10 15 0 8 -13 48 -30 89 -43 109 -96 356 -134 621 -37 261 -47
343 -49 391 -1 29 -5 50 -10 47 -7 -4 -11 48 -8 92 2 16 0 17 -8 5 -11 -15 -8
29 8 125 8 53 58 185 70 185 3 0 15 17 26 38 11 20 23 39 26 42 6 5 25 40 59
109 34 69 151 172 313 276 73 46 158 59 507 75 268 12 300 16 300 34 0 49
-182 87 -509 105 -213 12 -285 0 -389 -66 -59 -37 -78 -42 -67 -15 8 21 9 22
39 164 48 226 104 377 182 493 44 64 196 225 213 225 6 0 14 6 18 14 15 25
177 123 340 205 89 44 164 81 167 81 12 0 264 115 292 134 34 21 84 93 84 119
0 28 48 74 84 81 26 5 48 0 87 -19 71 -34 119 -67 119 -83 0 -58 209 -299 347
-400 35 -25 63 -49 63 -53 0 -4 30 -32 68 -63 146 -124 204 -175 275 -241 60
-57 157 -139 166 -143 14 -5 105 -91 100 -95 -15 -14 -154 -86 -204 -107 -85
-36 -216 -110 -222 -127 -14 -35 15 -36 144 -4 70 18 137 34 148 37 11 3 43
11 70 19 28 7 93 19 145 25 102 13 118 9 195 -40 17 -10 39 -25 51 -32 44 -28
189 -98 202 -98 8 0 94 -26 191 -59 197 -65 218 -72 346 -102 124 -29 195 -54
297 -105 47 -24 92 -42 100 -39 7 3 25 -6 39 -19 15 -14 30 -22 33 -19 8 9 46
-27 46 -44 0 -24 68 -80 104 -86 38 -6 76 1 76 14 0 5 7 6 15 3 9 -4 29 8 49
28 77 77 106 93 167 91 l55 -2 13 137 c11 117 23 204 57 392 3 19 12 55 19 80
33 108 42 264 25 409 -37 296 -61 432 -82 456 -4 5 -8 19 -8 31 0 32 -28 122
-56 179 -13 28 -24 56 -24 64 0 13 -47 120 -76 174 -9 15 -21 38 -27 50 -30
56 -136 209 -205 296 -79 99 -302 331 -320 331 -5 0 -37 24 -70 53 -65 56
-128 102 -172 128 -15 8 -35 23 -45 32 -9 10 -41 28 -70 42 -29 14 -58 32 -64
39 -14 17 -313 166 -333 166 -8 0 -32 9 -54 19 -22 11 -54 23 -70 27 -16 4
-38 13 -49 20 -11 8 -28 14 -37 14 -10 0 -26 4 -36 10 -9 5 -37 14 -62 19 -25
5 -81 18 -125 29 -213 54 -554 83 -725 62z"/>
<path d="M5727 6400 c-139 -22 -275 -90 -372 -185 -131 -127 -205 -276 -205
-408 0 -62 14 -109 23 -77 2 8 13 51 25 95 23 90 40 135 68 184 20 35 114 154
126 159 4 2 22 16 40 32 47 42 158 98 236 121 69 20 247 28 308 13 65 -15 143
-43 204 -75 85 -44 224 -182 264 -261 16 -32 33 -58 38 -58 15 0 8 55 -13 89
-11 18 -27 51 -36 72 -8 22 -47 70 -87 109 -80 79 -200 148 -304 175 -77 19
-236 27 -315 15z"/>
<path d="M5709 6246 c-90 -20 -142 -50 -202 -116 -73 -81 -96 -132 -104 -229
-10 -129 27 -239 106 -315 l40 -39 45 13 c25 7 46 16 46 19 0 4 21 13 47 19
26 7 61 19 78 26 41 17 96 37 120 42 58 14 132 40 146 51 8 7 31 13 50 13 94
0 118 47 100 190 -10 78 -17 98 -48 143 -74 107 -130 151 -230 178 -78 21
-115 22 -194 5z m-52 -175 c75 -46 46 -161 -41 -161 -59 1 -86 27 -86 83 0 47
15 68 60 86 34 13 31 13 67 -8z"/>
<path d="M3390 6054 c-108 -13 -108 -13 -210 -63 -52 -25 -100 -59 -154 -111
-67 -64 -86 -89 -122 -165 -48 -101 -66 -213 -44 -270 l12 -30 12 25 c7 14 16
46 19 72 4 26 18 71 32 99 14 29 25 59 25 66 0 7 4 13 9 13 5 0 14 13 20 29
23 55 209 220 249 221 7 0 30 9 52 20 51 26 211 50 259 39 20 -5 56 -9 81 -9
25 0 54 -7 64 -15 11 -8 27 -15 36 -15 18 0 82 -29 90 -40 3 -4 19 -14 35 -23
44 -23 170 -141 196 -185 13 -20 28 -40 33 -44 6 -4 11 -15 11 -24 0 -10 6
-19 13 -21 51 -18 -54 163 -144 245 -64 60 -174 132 -199 132 -8 0 -16 4 -20
9 -9 15 -106 40 -186 49 -45 4 -111 3 -169 -4z"/>
<path d="M7523 6023 c-17 -16 -39 -44 -48 -63 -10 -19 -22 -43 -26 -52 -5 -10
-9 -30 -8 -45 1 -23 2 -25 7 -8 10 29 40 73 89 129 38 43 47 66 25 66 -4 0
-22 -12 -39 -27z"/>
<path d="M3464 5925 c-34 -6 -82 -21 -106 -33 -55 -26 -138 -115 -172 -185
-50 -102 -44 -258 13 -346 14 -22 20 -23 76 -18 33 3 146 2 250 -4 l189 -9 45
30 c48 31 71 27 71 -11 0 -24 31 -25 46 -1 6 9 19 52 29 95 16 67 17 88 7 159
-16 106 -40 155 -113 223 -71 65 -93 77 -177 99 -72 18 -74 18 -158 1z m-61
-170 c86 -36 60 -165 -33 -165 -54 0 -90 31 -90 79 0 42 22 75 61 90 13 5 25
10 25 10 1 1 17 -6 37 -14z"/>
<path d="M6570 5545 c-16 -19 2 -67 38 -107 32 -35 60 -36 68 -4 8 34 -2 61
-37 96 -34 33 -51 37 -69 15z"/>
<path d="M7455 5421 c-3 -5 -1 -12 5 -16 5 -3 10 1 10 9 0 18 -6 21 -15 7z"/>
<path d="M7540 5016 c0 -2 9 -6 20 -9 11 -3 18 -1 14 4 -5 9 -34 13 -34 5z"/>
<path d="M2518 4720 c5 -35 22 -30 22 6 0 13 -6 24 -13 24 -9 0 -12 -10 -9
-30z"/>
<path d="M4307 4638 c-12 -47 18 -143 61 -193 30 -36 86 -72 136 -89 66 -22
244 -22 312 0 71 23 145 60 176 89 46 43 84 130 67 156 -6 11 -15 7 -41 -17
-63 -60 -122 -95 -203 -119 -142 -44 -316 -29 -405 35 -37 26 -75 84 -88 131
l-8 34 -7 -27z"/>
<path d="M8300 4407 c0 -53 4 -87 10 -87 10 0 3 158 -6 169 -2 2 -4 -35 -4
-82z"/>
<path d="M5823 4370 c-80 -34 -252 -94 -413 -145 -97 -31 -383 -101 -470 -115
-30 -5 -98 -16 -150 -25 -52 -8 -169 -19 -260 -25 -91 -5 -185 -12 -211 -15
-25 -4 -137 -8 -250 -9 -207 -3 -249 -10 -249 -42 0 -8 7 -17 17 -21 9 -3 32
-24 52 -46 19 -21 62 -58 95 -81 70 -49 244 -136 273 -136 10 0 23 -4 29 -9
20 -19 184 -50 304 -57 159 -9 413 20 485 57 11 5 34 9 50 9 42 -1 101 13 165
40 80 35 242 119 261 136 8 8 19 14 23 14 6 0 63 40 135 95 7 5 41 37 75 70
115 111 196 238 196 306 0 37 -1 39 -32 38 -18 0 -75 -18 -125 -39z m-304
-274 c97 -12 47 -77 -79 -102 -14 -3 -34 -10 -45 -15 -34 -15 -213 -57 -297
-68 -31 -5 -62 -12 -69 -17 -7 -4 -50 -12 -94 -16 -44 -5 -120 -13 -170 -18
-49 -5 -162 -12 -250 -15 -131 -5 -163 -3 -178 8 -23 19 -14 36 31 66 28 19
63 28 147 39 178 22 227 30 275 42 25 6 56 11 70 11 14 0 39 4 55 9 17 5 52
12 79 15 27 3 53 8 57 11 16 10 171 39 284 54 56 7 101 6 184 -4z"/>
<path d="M2601 4344 c0 -11 3 -14 6 -6 3 7 2 16 -1 19 -3 4 -6 -2 -5 -13z"/>
<path d="M8323 4235 c0 -33 2 -45 4 -27 2 18 2 45 0 60 -2 15 -4 0 -4 -33z"/>
<path d="M6880 3507 c0 -15 5 -27 10 -27 6 0 10 -8 10 -18 0 -20 59 -82 77
-82 6 0 20 -11 30 -24 13 -16 43 -30 103 -45 47 -13 93 -27 102 -32 10 -5 29
-9 44 -9 14 0 32 -7 40 -15 9 -8 33 -15 55 -15 21 0 39 -4 39 -9 0 -6 21 -13
48 -16 26 -3 57 -8 70 -11 15 -3 22 0 22 11 0 17 -36 33 -160 74 -101 34 -368
152 -413 184 -18 12 -42 30 -54 41 l-23 19 0 -26z"/>
<path d="M6793 2865 c15 -13 27 -29 27 -35 0 -5 7 -10 15 -10 8 0 15 -7 15
-15 0 -8 5 -15 11 -15 7 0 21 -10 33 -23 25 -27 117 -76 132 -70 6 2 37 -10
68 -27 31 -17 61 -28 66 -25 6 4 16 2 23 -3 21 -18 160 -64 207 -69 31 -3 59
-16 89 -39 24 -18 48 -31 52 -28 19 11 7 42 -31 79 -44 43 -42 42 -310 135
-270 93 -335 119 -382 151 -37 27 -48 23 -15 -6z"/>
<path d="M6770 2327 c0 -10 8 -17 18 -17 9 0 13 4 7 8 -5 4 -13 11 -17 16 -5
5 -8 2 -8 -7z"/>
<path d="M6820 2275 c0 -14 62 -65 80 -65 11 0 23 -6 26 -14 3 -8 16 -17 30
-20 13 -4 24 -12 24 -19 0 -17 31 -34 76 -43 22 -4 51 -15 66 -26 16 -11 32
-17 37 -14 5 3 23 -1 40 -10 17 -8 35 -12 41 -9 6 4 16 3 23 -3 7 -5 37 -17
67 -27 30 -9 70 -24 88 -31 18 -8 43 -14 57 -14 13 0 40 -15 62 -36 32 -31 42
-35 63 -27 44 15 34 49 -23 84 -28 17 -60 33 -71 35 -28 5 -294 89 -381 121
-98 35 -214 84 -250 105 -29 17 -55 23 -55 13z"/>
<path d="M9190 1825 c-10 -12 -10 -15 4 -15 9 0 16 7 16 15 0 8 -2 15 -4 15
-2 0 -9 -7 -16 -15z"/>
<path d="M9135 1791 c-3 -5 -36 -25 -73 -43 -37 -18 -70 -37 -74 -43 -4 -5 -8
-6 -8 -1 0 4 -10 2 -22 -6 -47 -30 -341 -120 -533 -162 -66 -15 -142 -32 -170
-38 -27 -6 -61 -12 -75 -14 -14 -1 -77 -8 -140 -15 -63 -8 -159 -14 -213 -14
-71 0 -97 -3 -97 -12 0 -10 35 -13 140 -13 118 0 140 2 140 15 0 13 22 15 134
15 74 0 136 4 138 9 2 5 37 12 78 16 41 4 79 11 84 16 6 5 36 9 67 9 32 0 60
4 64 9 3 6 27 13 53 17 26 4 56 13 67 20 11 8 29 14 42 14 12 0 25 5 28 10 3
6 22 10 41 10 19 0 34 4 34 8 0 5 25 19 55 33 30 13 55 27 55 32 0 4 11 7 24
7 13 0 26 7 30 15 3 8 12 15 21 15 9 0 26 11 39 25 13 14 33 25 45 25 11 0 21
5 21 11 0 7 8 18 18 25 9 7 12 14 5 14 -6 0 -14 -4 -18 -9z"/>
<path d="M6932 1743 c2 -9 11 -17 21 -19 18 -2 18 -2 1 17 -21 23 -26 24 -22
2z"/>
<path d="M6980 1710 c0 -6 7 -10 15 -10 8 0 15 -7 15 -15 0 -9 9 -15 24 -15
13 0 26 -6 29 -14 4 -9 14 -12 26 -9 14 3 23 0 27 -11 3 -9 17 -16 30 -16 15
0 24 -6 24 -15 0 -9 9 -15 24 -15 13 0 27 -7 30 -16 5 -12 14 -15 37 -10 21 4
31 1 35 -9 4 -10 20 -15 45 -15 28 0 39 -4 39 -15 0 -11 12 -15 47 -15 29 0
53 -6 65 -16 14 -13 25 -15 50 -8 32 10 32 10 -37 28 -139 37 -348 109 -365
126 -15 15 -160 78 -160 70z"/>
<path d="M7600 1470 c0 -6 17 -10 37 -10 43 0 41 5 -4 13 -19 4 -33 2 -33 -3z"/>
</g>
</svg>
